<?xml version="1.0" encoding="utf-8"?>
<!-- Generated by IcoMoon.io -->
<!DOCTYPE svg PUBLIC "-//W3C//DTD SVG 1.1//EN" "http://www.w3.org/Graphics/SVG/1.1/DTD/svg11.dtd">
<svg version="1.1" xmlns="http://www.w3.org/2000/svg" xmlns:xlink="http://www.w3.org/1999/xlink" width="416" height="32" viewBox="0 0 416 32">
<svg id="icon-up-arr" width="32" height="32" viewBox="0 0 32 32" x="0" y="0">
<path fill="#444444" d="M9.887 21.22l6.113-6.113 6.113 6.113 1.887-1.887-8-8-8 8z"></path>
</svg>
<svg id="icon-r-arr" width="32" height="32" viewBox="0 0 32 32" x="48" y="0">
<path fill="#444444" d="M11.447 22.613l6.113-6.113-6.113-6.113 1.887-1.887 8 8-8 8z"></path>
</svg>
<svg id="icon-l-arr" width="32" height="32" viewBox="0 0 32 32" x="96" y="0">
<path fill="#444444" d="M20.553 22.447l-6.113-6.113 6.113-6.113-1.887-1.887-8 8 8 8z"></path>
</svg>
<svg id="icon-down-arr" width="32" height="32" viewBox="0 0 32 32" x="144" y="0">
<path fill="#444444" d="M9.887 11.613l6.113 6.113 6.113-6.113 1.887 1.887-8 8-8-8z"></path>
</svg>
<svg id="icon-minus-box" width="25" height="32" viewBox="0 0 25 32" x="192" y="0">
<path fill="#444444" d="M20.571 14.571v1.143q0 0.25-0.161 0.411t-0.411 0.161h-14.857q-0.25 0-0.411-0.161t-0.161-0.411v-1.143q0-0.25 0.161-0.411t0.411-0.161h14.857q0.25 0 0.411 0.161t0.161 0.411zM22.857 22.571v-14.857q0-1.179-0.839-2.018t-2.018-0.839h-14.857q-1.179 0-2.018 0.839t-0.839 2.018v14.857q0 1.179 0.839 2.018t2.018 0.839h14.857q1.179 0 2.018-0.839t0.839-2.018zM25.143 7.714v14.857q0 2.125-1.509 3.634t-3.634 1.509h-14.857q-2.125 0-3.634-1.509t-1.509-3.634v-14.857q0-2.125 1.509-3.634t3.634-1.509h14.857q2.125 0 3.634 1.509t1.509 3.634z"></path>
</svg>
<svg id="icon-minus-sil" width="32" height="32" viewBox="0 0 32 32" x="240" y="0">
<path fill="#444444" d="M22.857 17.429v-2.286q0-0.464-0.339-0.804t-0.804-0.339h-16q-0.464 0-0.804 0.339t-0.339 0.804v2.286q0 0.464 0.339 0.804t0.804 0.339h16q0.464 0 0.804-0.339t0.339-0.804zM27.429 7.714v17.143q0 2.125-1.509 3.634t-3.634 1.509h-17.143q-2.125 0-3.634-1.509t-1.509-3.634v-17.143q0-2.125 1.509-3.634t3.634-1.509h17.143q2.125 0 3.634 1.509t1.509 3.634z"></path>
</svg>
<svg id="icon-plus-box" width="25" height="32" viewBox="0 0 25 32" x="288" y="0">
<path fill="#444444" d="M20.571 14.571v1.143q0 0.25-0.161 0.411t-0.411 0.161h-6.286v6.286q0 0.25-0.161 0.411t-0.411 0.161h-1.143q-0.25 0-0.411-0.161t-0.161-0.411v-6.286h-6.286q-0.25 0-0.411-0.161t-0.161-0.411v-1.143q0-0.25 0.161-0.411t0.411-0.161h6.286v-6.286q0-0.25 0.161-0.411t0.411-0.161h1.143q0.25 0 0.411 0.161t0.161 0.411v6.286h6.286q0.25 0 0.411 0.161t0.161 0.411zM22.857 22.571v-14.857q0-1.179-0.839-2.018t-2.018-0.839h-14.857q-1.179 0-2.018 0.839t-0.839 2.018v14.857q0 1.179 0.839 2.018t2.018 0.839h14.857q1.179 0 2.018-0.839t0.839-2.018zM25.143 7.714v14.857q0 2.125-1.509 3.634t-3.634 1.509h-14.857q-2.125 0-3.634-1.509t-1.509-3.634v-14.857q0-2.125 1.509-3.634t3.634-1.509h14.857q2.125 0 3.634 1.509t1.509 3.634z"></path>
</svg>
<svg id="icon-plus-sil" width="32" height="32" viewBox="0 0 32 32" x="336" y="0">
<path fill="#444444" d="M22.857 17.429v-2.286q0-0.464-0.339-0.804t-0.804-0.339h-5.714v-5.714q0-0.464-0.339-0.804t-0.804-0.339h-2.286q-0.464 0-0.804 0.339t-0.339 0.804v5.714h-5.714q-0.464 0-0.804 0.339t-0.339 0.804v2.286q0 0.464 0.339 0.804t0.804 0.339h5.714v5.714q0 0.464 0.339 0.804t0.804 0.339h2.286q0.464 0 0.804-0.339t0.339-0.804v-5.714h5.714q0.464 0 0.804-0.339t0.339-0.804zM27.429 7.714v17.143q0 2.125-1.509 3.634t-3.634 1.509h-17.143q-2.125 0-3.634-1.509t-1.509-3.634v-17.143q0-2.125 1.509-3.634t3.634-1.509h17.143q2.125 0 3.634 1.509t1.509 3.634z"></path>
</svg>
</svg>
