<svg style="position: absolute; width: 0; height: 0;" width="0" height="0" version="1.1" xmlns="http://www.w3.org/2000/svg" xmlns:xlink="http://www.w3.org/1999/xlink">
<defs>
<symbol id="icon-up-arr" viewBox="0 0 1024 1024">
	<title>up-arr</title>
	<path class="path1" d="M316.373 679.040l195.627-195.627 195.627 195.627 60.373-60.373-256-256-256 256z"></path>
</symbol>
<symbol id="icon-r-arr" viewBox="0 0 1024 1024">
	<title>r-arr</title>
	<path class="path1" d="M366.293 723.626l195.627-195.627-195.627-195.627 60.373-60.373 256 256-256 256z"></path>
</symbol>
<symbol id="icon-l-arr" viewBox="0 0 1024 1024">
	<title>l-arr</title>
	<path class="path1" d="M657.707 718.293l-195.627-195.627 195.627-195.627-60.373-60.373-256 256 256 256z"></path>
</symbol>
<symbol id="icon-down-arr" viewBox="0 0 1024 1024">
	<title>down-arr</title>
	<path class="path1" d="M316.373 371.626l195.627 195.627 195.627-195.627 60.373 60.373-256 256-256-256z"></path>
</symbol>
<symbol id="icon-minus-box" viewBox="0 0 805 1024">
	<title>minus-box</title>
	<path class="path1" d="M658.286 466.286v36.571q0 8-5.143 13.143t-13.143 5.143h-475.429q-8 0-13.143-5.143t-5.143-13.143v-36.571q0-8 5.143-13.143t13.143-5.143h475.429q8 0 13.143 5.143t5.143 13.143zM731.429 722.286v-475.429q0-37.714-26.857-64.571t-64.571-26.857h-475.429q-37.714 0-64.571 26.857t-26.857 64.571v475.429q0 37.714 26.857 64.571t64.571 26.857h475.429q37.714 0 64.571-26.857t26.857-64.571zM804.571 246.857v475.429q0 68-48.286 116.286t-116.286 48.286h-475.429q-68 0-116.286-48.286t-48.286-116.286v-475.429q0-68 48.286-116.286t116.286-48.286h475.429q68 0 116.286 48.286t48.286 116.286z"></path>
</symbol>
<symbol id="icon-minus-sil" viewBox="0 0 1024 1024">
	<title>minus-sil</title>
	<path class="path1" d="M731.429 557.714v-73.143q0-14.857-10.857-25.714t-25.714-10.857h-512q-14.857 0-25.714 10.857t-10.857 25.714v73.143q0 14.857 10.857 25.714t25.714 10.857h512q14.857 0 25.714-10.857t10.857-25.714zM877.714 246.857v548.571q0 68-48.286 116.286t-116.286 48.286h-548.571q-68 0-116.286-48.286t-48.286-116.286v-548.571q0-68 48.286-116.286t116.286-48.286h548.571q68 0 116.286 48.286t48.286 116.286z"></path>
</symbol>
<symbol id="icon-plus-box" viewBox="0 0 805 1024">
	<title>plus-box</title>
	<path class="path1" d="M658.286 466.286v36.571q0 8-5.143 13.143t-13.143 5.143h-201.143v201.143q0 8-5.143 13.143t-13.143 5.143h-36.571q-8 0-13.143-5.143t-5.143-13.143v-201.143h-201.143q-8 0-13.143-5.143t-5.143-13.143v-36.571q0-8 5.143-13.143t13.143-5.143h201.143v-201.143q0-8 5.143-13.143t13.143-5.143h36.571q8 0 13.143 5.143t5.143 13.143v201.143h201.143q8 0 13.143 5.143t5.143 13.143zM731.429 722.286v-475.429q0-37.714-26.857-64.571t-64.571-26.857h-475.429q-37.714 0-64.571 26.857t-26.857 64.571v475.429q0 37.714 26.857 64.571t64.571 26.857h475.429q37.714 0 64.571-26.857t26.857-64.571zM804.571 246.857v475.429q0 68-48.286 116.286t-116.286 48.286h-475.429q-68 0-116.286-48.286t-48.286-116.286v-475.429q0-68 48.286-116.286t116.286-48.286h475.429q68 0 116.286 48.286t48.286 116.286z"></path>
</symbol>
<symbol id="icon-plus-sil" viewBox="0 0 1024 1024">
	<title>plus-sil</title>
	<path class="path1" d="M731.429 557.714v-73.143q0-14.857-10.857-25.714t-25.714-10.857h-182.857v-182.857q0-14.857-10.857-25.714t-25.714-10.857h-73.143q-14.857 0-25.714 10.857t-10.857 25.714v182.857h-182.857q-14.857 0-25.714 10.857t-10.857 25.714v73.143q0 14.857 10.857 25.714t25.714 10.857h182.857v182.857q0 14.857 10.857 25.714t25.714 10.857h73.143q14.857 0 25.714-10.857t10.857-25.714v-182.857h182.857q14.857 0 25.714-10.857t10.857-25.714zM877.714 246.857v548.571q0 68-48.286 116.286t-116.286 48.286h-548.571q-68 0-116.286-48.286t-48.286-116.286v-548.571q0-68 48.286-116.286t116.286-48.286h548.571q68 0 116.286 48.286t48.286 116.286z"></path>
</symbol>
</defs>
</svg>
